<?xml version="1.0" encoding="UTF-8"?>
<svg id="Layer_1" data-name="Layer 1" xmlns="http://www.w3.org/2000/svg" viewBox="0 0 20 20">
  <defs>
    <style>
      .cls-1 {
        fill: currentColor;
      }
    </style>
  </defs>
  <g>
    <path class="cls-1" d="M17.79,18.54h-4.99c-1.22,0-2.21-.99-2.21-2.21V5.62c0-1.22,.99-2.21,2.21-2.21h4.99c1.22,0,2.21,.99,2.21,2.21v10.71c0,1.22-.99,2.21-2.21,2.21ZM12.79,4.71c-.5,0-.91,.41-.91,.91v10.71c0,.5,.41,.91,.91,.91h4.99c.5,0,.91-.41,.91-.91V5.62c0-.5-.41-.91-.91-.91h-4.99Z"/>
    <path class="cls-1" d="M16.85,7.47h-3.12c-.36,0-.65-.29-.65-.65s.29-.65,.65-.65h3.12c.36,0,.65,.29,.65,.65s-.29,.65-.65,.65Z"/>
    <path class="cls-1" d="M17.45,2.75h-4.31c-.36,0-.65-.29-.65-.65s.29-.65,.65-.65h4.31c.36,0,.65,.29,.65,.65s-.29,.65-.65,.65Z"/>
    <path class="cls-1" d="M16.85,10.24h-3.12c-.36,0-.65-.29-.65-.65s.29-.65,.65-.65h3.12c.36,0,.65,.29,.65,.65s-.29,.65-.65,.65Z"/>
    <path class="cls-1" d="M16.85,13.01h-3.12c-.36,0-.65-.29-.65-.65s.29-.65,.65-.65h3.12c.36,0,.65,.29,.65,.65s-.29,.65-.65,.65Z"/>
    <path class="cls-1" d="M16.85,15.77h-3.12c-.36,0-.65-.29-.65-.65s.29-.65,.65-.65h3.12c.36,0,.65,.29,.65,.65s-.29,.65-.65,.65Z"/>
  </g>
  <g>
    <path class="cls-1" d="M7.21,18.54H2.21C.99,18.54,0,17.55,0,16.33V5.62C0,4.4,.99,3.4,2.21,3.4H7.21c1.22,0,2.21,.99,2.21,2.21v10.71c0,1.22-.99,2.21-2.21,2.21ZM2.21,4.71c-.5,0-.91,.41-.91,.91v10.71c0,.5,.41,.91,.91,.91H7.21c.5,0,.91-.41,.91-.91V5.62c0-.5-.41-.91-.91-.91H2.21Z"/>
    <path class="cls-1" d="M6.27,7.47H3.15c-.36,0-.65-.29-.65-.65s.29-.65,.65-.65h3.12c.36,0,.65,.29,.65,.65s-.29,.65-.65,.65Z"/>
    <path class="cls-1" d="M6.86,2.75H2.55c-.36,0-.65-.29-.65-.65s.29-.65,.65-.65H6.86c.36,0,.65,.29,.65,.65s-.29,.65-.65,.65Z"/>
    <path class="cls-1" d="M6.27,10.24H3.15c-.36,0-.65-.29-.65-.65s.29-.65,.65-.65h3.12c.36,0,.65,.29,.65,.65s-.29,.65-.65,.65Z"/>
    <path class="cls-1" d="M6.27,13.01H3.15c-.36,0-.65-.29-.65-.65s.29-.65,.65-.65h3.12c.36,0,.65,.29,.65,.65s-.29,.65-.65,.65Z"/>
    <path class="cls-1" d="M6.27,15.77H3.15c-.36,0-.65-.29-.65-.65s.29-.65,.65-.65h3.12c.36,0,.65,.29,.65,.65s-.29,.65-.65,.65Z"/>
  </g>
</svg>